<svg width="112" height="29" viewBox="0 0 112 29" fill="none" xmlns="http://www.w3.org/2000/svg">
<path d="M1.22392e-06 14C1.06319e-06 15.8385 0.362122 17.659 1.06569 19.3576C1.76925 21.0561 2.80049 22.5995 4.10051 23.8995C5.40053 25.1995 6.94387 26.2307 8.64243 26.9343C10.341 27.6379 12.1615 28 14 28C15.8385 28 17.659 27.6379 19.3576 26.9343C21.0561 26.2307 22.5995 25.1995 23.8995 23.8995C25.1995 22.5995 26.2307 21.0561 26.9343 19.3576C27.6379 17.659 28 15.8385 28 14L14 14L1.22392e-06 14Z" fill="#1C8DF2"/>
<path d="M28 14C28 12.1615 27.6379 10.341 26.9343 8.64243C26.2307 6.94387 25.1995 5.40053 23.8995 4.1005C22.5995 2.80048 21.0561 1.76925 19.3576 1.06569C17.659 0.362121 15.8385 -8.03636e-08 14 0C12.1615 8.03637e-08 10.341 0.362121 8.64243 1.06569C6.94387 1.76925 5.40052 2.80049 4.1005 4.10051C2.80048 5.40053 1.76925 6.94387 1.06569 8.64243C0.36212 10.341 -1.60727e-07 12.1615 0 14L14 14L28 14Z" fill="#A8D4FA"/>
<path d="M37.598 21H43.1733C46.554 21 48.081 19.3168 48.081 17.0866C48.081 14.8352 46.5043 13.5639 45.0625 13.4858V13.3438C46.3977 13.0028 47.5128 12.0938 47.5128 10.2756C47.5128 8.12358 46.0213 6.45455 42.9247 6.45455H37.598V21ZM39.7926 19.1179V14.4588H43.0384C44.7997 14.4588 45.9006 15.5952 45.9006 16.9801C45.9006 18.2017 45.0696 19.1179 42.9602 19.1179H39.7926ZM39.7926 12.7472V8.32244H42.7898C44.5298 8.32244 45.3608 9.23864 45.3608 10.446C45.3608 11.8523 44.2102 12.7472 42.733 12.7472H39.7926ZM52.6371 6.45455H50.5135V21H52.6371V6.45455ZM60.0891 21.2202C63.1644 21.2202 65.1744 18.9688 65.1744 15.5952C65.1744 12.2003 63.1644 9.94886 60.0891 9.94886C57.0138 9.94886 55.0039 12.2003 55.0039 15.5952C55.0039 18.9688 57.0138 21.2202 60.0891 21.2202ZM60.0962 19.4375C58.0863 19.4375 57.1488 17.6832 57.1488 15.5881C57.1488 13.5 58.0863 11.7244 60.0962 11.7244C62.092 11.7244 63.0295 13.5 63.0295 15.5881C63.0295 17.6832 62.092 19.4375 60.0962 19.4375ZM72.1186 25.3182C74.8956 25.3182 77.0405 24.0469 77.0405 21.2415V10.0909H74.9595V11.8594H74.8033C74.4268 11.1847 73.674 9.94886 71.6428 9.94886C69.0078 9.94886 67.0689 12.0298 67.0689 15.5028C67.0689 18.983 69.0504 20.8366 71.6286 20.8366C73.6314 20.8366 74.4055 19.7074 74.7891 19.0114H74.924V21.1562C74.924 22.8679 73.7521 23.6065 72.1399 23.6065C70.3714 23.6065 69.6825 22.7188 69.3061 22.0938L67.4808 22.8466C68.0561 24.1818 69.5121 25.3182 72.1186 25.3182ZM72.0973 19.0753C70.201 19.0753 69.2138 17.6193 69.2138 15.4744C69.2138 13.3793 70.1797 11.7528 72.0973 11.7528C73.951 11.7528 74.9453 13.2656 74.9453 15.4744C74.9453 17.7259 73.9297 19.0753 72.0973 19.0753Z" fill="#616161"/>
</svg>
