<svg width="256" height="256" viewBox="0 0 256 256" fill="none" xmlns="http://www.w3.org/2000/svg">
<path d="M1.11901e-05 128C9.72061e-06 144.809 3.31083 161.454 9.74343 176.983C16.176 192.513 25.6044 206.624 37.4903 218.51C49.3762 230.396 63.4868 239.824 79.0165 246.257C94.5462 252.689 111.191 256 128 256C144.809 256 161.454 252.689 176.983 246.257C192.513 239.824 206.624 230.396 218.51 218.51C230.396 206.624 239.824 192.513 246.257 176.983C252.689 161.454 256 144.809 256 128L128 128L1.11901e-05 128Z" fill="#40A1F3"/>
<path d="M256 128C256 111.191 252.689 94.5462 246.257 79.0165C239.824 63.4868 230.396 49.3762 218.51 37.4903C206.624 25.6044 192.513 16.176 176.983 9.74342C161.454 3.31082 144.809 -7.34753e-07 128 0C111.191 7.34754e-07 94.5462 3.31082 79.0165 9.74342C63.4868 16.176 49.3762 25.6044 37.4903 37.4903C25.6044 49.3762 16.176 63.4869 9.74342 79.0165C3.31081 94.5462 -1.46951e-06 111.191 0 128L128 128L256 128Z" fill="#A8D4FA"/>
</svg>
